<svg width="20" height="21" viewBox="0 0 20 21" fill="none" xmlns="http://www.w3.org/2000/svg">
<g clip-path="url(#clip0_378_5678)">
<path d="M16.5373 15.4167C16.5373 15.2583 16.5373 15.125 16.5373 15C16.5373 11.5833 16.5373 8.16528 16.5373 4.74583C16.5141 4.54771 16.5505 4.34719 16.6418 4.16983C16.7331 3.99247 16.8751 3.84632 17.0498 3.75C17.1912 3.67467 17.3491 3.63582 17.5093 3.63699C17.6696 3.63816 17.8269 3.6793 17.9672 3.75668C18.1075 3.83407 18.2263 3.94525 18.3127 4.08014C18.3992 4.21504 18.4506 4.36938 18.4623 4.52917C18.4623 4.62083 18.4623 4.70833 18.4623 4.79583V16.2042C18.4623 17.0042 18.0956 17.375 17.2914 17.375C15.3873 17.375 13.4789 17.375 11.5706 17.375C10.3368 17.3914 9.13651 16.9735 8.17978 16.1942C7.22306 15.415 6.57084 14.3241 6.33727 13.1125C6.27292 12.8111 6.23941 12.504 6.23727 12.1958C6.23727 10.5292 6.23727 8.8875 6.23727 7.23333C6.22582 7.02237 6.2835 6.81343 6.40156 6.63823C6.51962 6.46302 6.69161 6.3311 6.89143 6.2625C7.07695 6.18742 7.28253 6.17787 7.47421 6.23545C7.66588 6.29303 7.83217 6.41428 7.9456 6.57917C8.07861 6.80396 8.15043 7.05966 8.15393 7.32083C8.17477 8.875 8.15393 10.4292 8.15393 11.9833C8.13043 12.7212 8.35253 13.4459 8.78538 14.0439C9.21823 14.6419 9.83735 15.0793 10.5456 15.2875C10.8735 15.3818 11.2128 15.4308 11.5539 15.4333C13.1331 15.4333 14.7081 15.4333 16.2831 15.4333C16.3581 15.4375 16.4206 15.425 16.5373 15.4167Z" fill="white"/>
<path d="M3.45843 5.59167C3.45843 5.74167 3.45843 5.87083 3.45843 6.00833C3.45843 9.43056 3.45843 12.8486 3.45843 16.2625C3.48772 16.5172 3.41461 16.7731 3.25521 16.974C3.0958 17.1748 2.86315 17.3041 2.60843 17.3333C2.35371 17.3626 2.09779 17.2895 1.89697 17.1301C1.69615 16.9707 1.56688 16.7381 1.5376 16.4833C1.5376 16.3958 1.5376 16.3083 1.5376 16.2208V4.8C1.5376 3.99583 1.90843 3.625 2.70426 3.625C4.60843 3.625 6.51676 3.625 8.4251 3.625C9.65881 3.60821 10.8592 4.02545 11.8165 4.80381C12.7739 5.58216 13.4273 6.67215 13.6626 7.88333C13.7269 8.1847 13.7604 8.49184 13.7626 8.8C13.7626 10.4667 13.7626 12.1208 13.7626 13.7625C13.7731 13.9328 13.738 14.1027 13.6608 14.2549C13.5837 14.407 13.4674 14.5358 13.3238 14.628C13.1803 14.7201 13.0147 14.7723 12.8443 14.7791C12.6739 14.7859 12.5047 14.7471 12.3543 14.6667C12.1826 14.5764 12.0417 14.437 11.9497 14.2663C11.8577 14.0956 11.8186 13.9013 11.8376 13.7083C11.8376 12.1472 11.8376 10.5819 11.8376 9.0125C11.8644 8.22913 11.6142 7.46139 11.1311 6.84416C10.648 6.22693 9.96279 5.79969 9.19593 5.6375C8.93716 5.58211 8.67305 5.55556 8.40843 5.55833C6.85426 5.55833 5.3001 5.55833 3.74593 5.55833C3.65843 5.5625 3.5751 5.57917 3.45843 5.59167Z" fill="white"/>
</g>
<defs>
<clipPath id="clip0_378_5678">
<rect width="20" height="20" fill="white" transform="translate(0 0.5)"/>
</clipPath>
</defs>
</svg>
