<svg width="20" height="20" viewBox="0 0 20 20" fill="none" xmlns="http://www.w3.org/2000/svg">
<path d="M17.942 6.06717L7.94205 16.0672C7.884 16.1253 7.81507 16.1714 7.7392 16.2028C7.66332 16.2343 7.58199 16.2505 7.49986 16.2505C7.41772 16.2505 7.3364 16.2343 7.26052 16.2028C7.18465 16.1714 7.11572 16.1253 7.05767 16.0672L2.68267 11.6922C2.5654 11.5749 2.49951 11.4158 2.49951 11.25C2.49951 11.0841 2.5654 10.9251 2.68267 10.8078C2.79995 10.6905 2.95901 10.6246 3.12486 10.6246C3.29071 10.6246 3.44977 10.6905 3.56705 10.8078L7.49986 14.7414L17.0577 5.18279C17.1749 5.06552 17.334 4.99963 17.4999 4.99963C17.6657 4.99963 17.8248 5.06552 17.942 5.18279C18.0593 5.30007 18.1252 5.45913 18.1252 5.62498C18.1252 5.79083 18.0593 5.94989 17.942 6.06717Z" fill="white"/>
</svg>
